# xmcd CD database file
#
# Track frame offsets:
#	150
#	15687
#	33267
#	55222
#	75140
#	87525
#	98827
#	125992
#	147617
#	158587
#	175467
#	190992
#	204870
#	223742
#	232335
#	247140
#	266865
#	285792
#	297827
#	316577
#
# Disc length: 4432 seconds
#
# Revision: 0
# Processed by: cddbd v1.4PL0 Copyright (c) Steve Scherf et al.
# Submitted via: CDex 1.40Beta9
#
DISCID=26114e14
DTITLE=Jerry Jeff Walker - Best of the Vanguard Years
DYEAR=1900
DGENRE=Country
TTITLE0=Driftin' Way of Life
TTITLE1=Mr. Bojangles
TTITLE2=Louise
TTITLE3=Morning Song to Sally
TTITLE4=Come Outside, Believe in It
TTITLE5=People Play Games
TTITLE6=Hansel and Gretel
TTITLE7=Fading Lady
TTITLE8=Mixtures
TTITLE9=Shell Game
TTITLE10=Northn Cumberland Blues
TTITLE11=Let It Ride
TTITLE12=Dust on My Boots
TTITLE13=Old Road
TTITLE14=Gertrude
TTITLE15=Ramblin', Scramblin'
TTITLE16=No Roots In Ramblin'
TTITLE17=Trying to Live Right
TTITLE18=Lost Sea Shanty
TTITLE19=Oops I Can Dance
EXTD=ID3G: 2
EXTT0=
EXTT1=
EXTT2=
EXTT3=
EXTT4=
EXTT5=
EXTT6=
EXTT7=
EXTT8=
EXTT9=
EXTT10=
EXTT11=
EXTT12=
EXTT13=
EXTT14=
EXTT15=
EXTT16=
EXTT17=
EXTT18=
EXTT19=
PLAYORDER=
